<svg xmlns="http://www.w3.org/2000/svg" width="1440" height="311" fill="none"><g fill="#0F0E12" clip-path="url(#a)"><path d="M268.12 190.76c-16.06 68.88-78.13 120.2-152.28 120.2H19.73C8.84 310.96 0 302.19 0 291.35V19.61C0 8.81 8.84 0 19.73 0h96.11c74.15 0 136.22 51.32 152.28 120.2 1.48 6.32 10.43 6.32 11.91 0C296.09 51.32 358.15 0 432.3 0c8 0 14.5 6.45 14.5 14.41V296.6c0 7.96-6.5 14.41-14.5 14.41-74.15 0-136.22-51.32-152.28-120.2-1.48-6.3-10.4-6.32-11.91-.04l.01-.01Zm1168.34-53.95c-2.42-7.24-5.89-13.36-10.32-18.19-4.48-4.87-9.92-8.6-16.17-11.09-6.12-2.43-12.91-3.66-20.19-3.66-6.4 0-12.18.73-17.18 2.17-5.09 1.47-9.57 3.54-13.29 6.15-1.4.99-2.72 2.01-3.93 3.06-.19-1.58-.43-2.88-.74-3.94a5.964 5.964 0 0 0-5.74-4.34h-31.05c-1.64 0-3.2.67-4.33 1.86a5.947 5.947 0 0 0-1.63 4.42c.17 3.22.25 6.64.25 10.17v17.71c-1.42-3.06-3.01-5.98-4.8-8.73-4.19-6.43-9.29-11.96-15.15-16.46-5.86-4.49-12.57-8-19.95-10.43-7.34-2.41-15.31-3.63-23.71-3.63-9.08 0-17.54 1.27-25.13 3.76-7.65 2.52-14.59 6.17-20.63 10.84-6.04 4.67-11.22 10.35-15.41 16.87-1.3 2.02-2.48 4.13-3.57 6.3-1.5-4.17-3.58-8.35-6.24-12.46-3.26-5.05-7.47-9.75-12.52-13.97-5.25-4.39-11.73-7.92-19.26-10.5-7.42-2.54-16.06-3.83-25.67-3.83-11.73 0-22.37 2.17-31.63 6.44-9.33 4.31-17.31 10.46-23.69 18.29-4.49 5.5-8.23 11.63-11.19 18.29-3-8.09-7.02-15.24-11.98-21.29-5.78-7.03-12.72-12.47-20.65-16.17-7.91-3.69-16.56-5.56-25.72-5.56-8.36 0-15.88 1.24-22.36 3.68-3.5 1.32-6.74 2.89-9.68 4.69a10.943 10.943 0 0 0-9.36-5.26h-31.05c-3 0-5.86 1.23-7.93 3.4a10.915 10.915 0 0 0-3 8.09c.16 3.3.25 6.65.25 9.94v8.73c-2.22-4.19-4.77-8.05-7.63-11.54-5.78-7.03-12.72-12.47-20.65-16.17-7.91-3.69-16.56-5.56-25.72-5.56-8.36 0-15.88 1.24-22.36 3.68-3.5 1.32-6.74 2.89-9.68 4.69a10.943 10.943 0 0 0-9.36-5.26h-31.05c-3 0-5.86 1.23-7.93 3.4a10.915 10.915 0 0 0-3 8.09c.16 3.3.25 6.65.25 9.94v.87c-2.78-4.71-6.31-8.79-10.56-12.16-5.72-4.53-12.7-7.94-20.74-10.13-7.55-2.06-16.22-3.1-25.78-3.1-11.12 0-20.76 1.32-28.65 3.91-8.28 2.72-15.19 6.6-20.55 11.52-4.26 3.91-7.7 8.36-10.28 13.25V56.8c0-8.79-7.13-15.92-15.92-15.92h-32.34c-8.79 0-15.92 7.13-15.92 15.92v39.04c-.32-.08-.65-.15-.98-.23-5.03-1.14-10.58-1.69-17-1.69-9.2 0-17.92 1.44-25.91 4.29-8.12 2.89-15.47 7.14-21.86 12.63-6.27 5.39-11.6 11.88-15.85 19.29-4.07 7.1-7.23 15.02-9.39 23.55-2.13 8.41-3.2 17.51-3.2 27.07 0 11.71 1.54 22.68 4.58 32.61 3.18 10.38 7.88 19.46 13.99 26.98 6.28 7.74 13.93 13.84 22.73 18.12 8.89 4.33 18.9 6.52 29.74 6.52 8.37 0 15.88-.96 22.32-2.84a56.78 56.78 0 0 0 8.84-3.38c2.66 1.97 5.94 3.12 9.46 3.12h31.05c8.79 0 15.92-7.13 15.92-15.92 0-1.02-.01-2.05-.02-3.08 3.23 3.59 7.06 6.75 11.48 9.45 8.35 5.1 19.02 7.68 31.7 7.68 9.45 0 17.13-1.1 23.47-3.35 3.13-1.12 6-2.41 8.6-3.88 2.04 2.56 5.17 4.12 8.56 4.12h30.79c.58 0 1.15-.06 1.71-.15v40.7c0 6.05 4.9 10.95 10.95 10.95h32.09c6.05 0 10.95-4.9 10.95-10.95v-41.71c1.35.57 2.76 1.09 4.22 1.55 5.63 1.8 12.37 2.72 20.03 2.72 7.66 0 15.25-1.26 22.19-3.75 6.95-2.49 13.4-6.16 19.17-10.9 5.8-4.76 10.81-10.7 14.9-17.65.93-1.58 1.81-3.22 2.65-4.92v74.66c0 6.05 4.9 10.95 10.95 10.95h32.09c6.05 0 10.95-4.9 10.95-10.95v-41.71c1.35.57 2.76 1.09 4.22 1.55 5.63 1.8 12.37 2.72 20.03 2.72 7.66 0 15.25-1.26 22.19-3.75 6.95-2.49 13.4-6.16 19.17-10.9 5.8-4.76 10.81-10.7 14.9-17.65 2.04-3.46 3.85-7.21 5.44-11.2 3.03 7.75 7.14 14.7 12.29 20.68 6.33 7.37 14.15 13.09 23.24 17.02 8.94 3.86 19.27 5.81 30.73 5.81 8.6 0 16.4-1.02 23.18-3.04 6.75-2.01 12.83-4.76 18.09-8.16 5.41-3.5 10.05-7.72 13.82-12.56 3.58-4.6 6.53-9.58 8.79-14.8.41-.95.79-1.9 1.16-2.86 2.84 5.94 6.39 11.34 10.62 16.1 6.27 7.05 14 12.61 22.96 16.5 8.9 3.87 19.03 5.83 30.08 5.83 9.12 0 17.6-1.32 25.21-3.92 7.63-2.61 14.51-6.3 20.46-10.98 6-4.72 11.08-10.49 15.09-17.15 1.62-2.69 3.08-5.5 4.4-8.42v29.41c0 3.3 2.67 5.97 5.97 5.97h32.08c3.3 0 5.97-2.67 5.97-5.97V173c0-7.5.91-13.65 2.7-18.29 1.62-4.19 3.96-7.24 7.14-9.32 3.22-2.1 7.39-3.17 12.39-3.17 4.56 0 8.05.84 10.36 2.5 2.38 1.71 4.09 4.09 5.24 7.26 1.31 3.64 1.98 7.92 1.98 12.73v81.25c0 3.3 2.67 5.97 5.97 5.97h32.09c3.3 0 5.97-2.67 5.97-5.97v-84.87c0-9.05-1.19-17.22-3.54-24.27l-.04-.01Zm-174.58 73.27c-1.87 1.8-3.87 3.12-6.13 4.04-2.22.9-4.92 1.36-8 1.36-3.71 0-6.84-.71-9.58-2.17-2.87-1.53-5.31-3.67-7.47-6.55-2.23-2.97-3.96-6.71-5.15-11.14-1.28-4.73-1.93-10.17-1.93-16.17 0-5.14.43-9.89 1.27-14.09.8-4 1.95-7.48 3.42-10.35 1.38-2.7 3-4.92 4.81-6.6 1.73-1.62 3.7-2.81 6-3.66 2.38-.87 5.11-1.32 8.11-1.32 3.95 0 7.41.7 10.28 2.07 2.73 1.31 4.99 3.26 6.89 5.95 2.09 2.97 3.73 6.75 4.87 11.22 1.21 4.77 1.82 10.51 1.82 17.06 0 4.83-.39 9.33-1.16 13.4-.73 3.85-1.81 7.27-3.21 10.15-1.31 2.68-2.94 4.98-4.84 6.82v-.02Zm-127.53-9.95c-.78 2.2-1.71 4.21-2.79 5.98a16.09 16.09 0 0 1-3.15 3.78c-1 .88-2.18 1.54-3.59 2.03-1.61.55-3.54.83-5.76.83-2.89 0-5.29-.52-7.34-1.59-2.03-1.06-3.78-2.7-5.35-5.01-1.82-2.66-3.23-6.13-4.21-10.3-1.1-4.68-1.65-10.28-1.65-16.65 0-4.71.34-9.1 1.01-13.05.6-3.56 1.56-6.72 2.84-9.41 1.21-2.54 2.58-4.61 4.08-6.17 1.26-1.31 2.74-2.3 4.51-3.01 1.89-.77 3.97-1.14 6.37-1.14 3.54 0 5.62.49 6.74.89 1.49.54 2.71 1.26 3.72 2.18 1.04.96 1.85 2.04 2.46 3.3.85 1.76 1.54 3.75 2.05 5.9a10.95 10.95 0 0 0 10.65 8.43h30.9c-.48 4.08-.73 8.29-.73 12.6 0 4.31.29 8.87.83 13.12h-31.26c-4.64 0-8.78 2.93-10.32 7.31l-.01-.02Zm-138.07 7.69a13.318 13.318 0 0 1-4.85 3.21c-2.09.8-4.64 1.21-7.58 1.21-3.89 0-6.97-.58-9.16-1.73-2.09-1.09-3.77-2.67-5.15-4.84-1.67-2.61-2.9-5.95-3.67-9.92-.9-4.64-1.35-10.12-1.35-16.29 0-5.07.34-9.68 1.02-13.72.62-3.71 1.52-6.89 2.68-9.47.96-2.13 2.12-3.81 3.56-5.14 1.4-1.3 3.06-2.28 5.09-2.99 2.27-.79 5.15-1.2 8.54-1.2 3.1 0 5.66.54 7.83 1.65 2.14 1.1 3.95 2.7 5.52 4.9 1.82 2.55 3.27 5.74 4.31 9.49 1.11 4.03 1.67 8.88 1.67 14.42 0 5.02-.38 9.68-1.12 13.86-.69 3.88-1.71 7.28-3.03 10.12-1.2 2.58-2.64 4.75-4.29 6.46l-.02-.02Zm-137.13 0a13.318 13.318 0 0 1-4.85 3.21c-2.09.8-4.64 1.21-7.58 1.21-3.89 0-6.97-.58-9.16-1.73-2.09-1.09-3.77-2.67-5.15-4.84-1.67-2.61-2.9-5.95-3.67-9.92-.9-4.64-1.35-10.12-1.35-16.29 0-5.07.34-9.68 1.02-13.72.62-3.71 1.52-6.89 2.68-9.47.96-2.13 2.12-3.81 3.56-5.14 1.4-1.3 3.06-2.28 5.09-2.99 2.27-.79 5.15-1.2 8.54-1.2 3.1 0 5.66.54 7.83 1.65 2.14 1.1 3.95 2.7 5.52 4.9 1.82 2.55 3.27 5.74 4.31 9.49 1.11 4.03 1.67 8.88 1.67 14.42 0 5.02-.38 9.68-1.12 13.86-.69 3.88-1.71 7.28-3.03 10.12-1.2 2.58-2.64 4.75-4.29 6.46l-.02-.02Zm-131.04-7.32c-.42 3.09-1.29 5.83-2.58 8.13-.94 1.68-2.35 2.97-4.44 4.06-1.63.85-4.81 1.86-10.72 1.86-2.76 0-4.99-.45-6.61-1.35-1.85-1.02-2.52-2-2.86-2.65-.71-1.35-1.06-2.89-1.06-4.71 0-2.08.29-3.79.85-4.94.43-.89 1.23-1.71 2.43-2.52 1.64-1.09 3.9-1.94 6.72-2.52 3.49-.71 7.85-1.07 12.94-1.07h5.9c-.13 1.96-.33 3.87-.57 5.71Zm-23.72-47.71c.22-1.54.6-2.99 1.13-4.33.32-.79.74-1.43 1.33-2.02.2-.2.84-.73 2.42-1.27.9-.31 3.05-.83 7.31-.83 4.69 0 7.01.65 7.97 1.03 1.16.47 2.05 1.02 2.47 1.55.65.82 1.07 1.66 1.3 2.64.25 1.03.42 2.09.51 3.16h-9.15c-5.38 0-10.54.25-15.41.74.05-.22.08-.44.12-.67Zm-41.63 9.4h9.87c-4.81 2.53-9.09 5.58-12.76 9.07-.5.48-.99.98-1.47 1.48v-11.46c1.36.59 2.84.91 4.36.91Zm-97.77 17.52c0-4.52.34-8.61 1.02-12.18.58-3.06 1.43-5.7 2.54-7.86.96-1.87 2.07-3.4 3.3-4.55 1.08-1.01 2.32-1.78 3.77-2.34 1.52-.58 3.38-.88 5.54-.88 5.35 0 7.67.91 8.42 1.3 1.25.65 2.06 1.42 2.71 2.56 1.12 1.97 1.9 4.59 2.32 7.78.6 4.57.9 9.66.9 15.13 0 3.92-.19 7.83-.57 11.62-.32 3.14-.91 6.07-1.76 8.69-.56 1.73-1.36 3.19-2.43 4.45-.84.99-1.98 1.8-3.47 2.46-1.14.51-3.3 1.1-7.15 1.1-2.42 0-4.46-.39-6.07-1.16-1.38-.66-2.54-1.68-3.65-3.22-1.56-2.15-2.82-5-3.77-8.48-1.09-3.96-1.63-8.81-1.63-14.43l-.02.01Z" style="fill:#0f0e12;fill:color(display-p3 .0588 .0549 .0706);fill-opacity:1"/></g><defs><clipPath id="a"><path fill="#fff" d="M0 0h1440v311.01H0z" style="fill:#fff;fill-opacity:1"/></clipPath></defs></svg>